<?xml version="1.0" standalone="no"?>
<!DOCTYPE svg PUBLIC "-//W3C//DTD SVG 20010904//EN"
 "http://www.w3.org/TR/2001/REC-SVG-20010904/DTD/svg10.dtd">
<svg version="1.0" xmlns="http://www.w3.org/2000/svg"
 width="345.000000pt" height="345.000000pt" viewBox="0 0 345.000000 345.000000"
 preserveAspectRatio="xMidYMid meet">
<metadata>
Created by potrace 1.11, written by Peter Selinger 2001-2013
</metadata>
<g transform="translate(0.000000,345.000000) scale(0.100000,-0.100000)"
fill="#000000" stroke="none">
<path d="M1219 3340 c-108 -19 -200 -114 -235 -242 -15 -56 -19 -185 -8 -253
l6 -40 -24 22 c-33 31 -125 69 -176 72 -92 6 -151 -35 -199 -135 -22 -47 -27
-71 -27 -143 0 -107 6 -138 49 -227 33 -69 104 -153 169 -202 26 -20 28 -24
14 -40 -17 -19 -82 -154 -105 -217 -137 -374 -113 -809 60 -1115 46 -82 127
-189 194 -256 180 -180 429 -301 678 -329 76 -9 232 -8 246 0 6 4 4 -6 -5 -22
-19 -38 -15 -63 15 -85 39 -30 109 -26 180 9 l60 30 -1 -26 c-4 -57 14 -81 61
-81 62 0 117 48 153 130 11 25 21 46 22 48 1 2 11 -2 22 -9 39 -24 104 23 118
84 7 28 13 75 13 105 1 14 10 26 24 31 22 9 128 79 137 91 3 4 13 11 23 17 29
16 160 147 204 205 95 124 164 286 189 446 3 20 10 39 14 42 4 3 18 25 31 50
20 36 24 60 24 125 0 85 -14 125 -60 170 -12 13 -25 42 -29 67 -7 42 -29 117
-61 208 -20 56 -98 212 -127 254 -98 142 -196 252 -298 336 -30 25 -57 47 -60
50 -18 18 -109 75 -190 118 -120 64 -275 117 -375 128 -22 3 -49 7 -60 9 -11
2 -50 4 -86 4 l-67 1 -5 33 c-24 153 -105 316 -212 422 -93 94 -195 133 -296
115z"/>
</g>
</svg>
